<svg xmlns="http://www.w3.org/2000/svg" width="656.444580078125" height="60.64705276489258" viewBox="-416.9308776855469 -47.304237365722656 656.444580078125 60.64705276489258"><title>Neo4j Graph Visualization</title><desc>Created using Neo4j (http://www.neo4j.com/)</desc><g class="layer relationships"><g class="relationship" transform="translate(69.43518073530677 -18.304238493357282) rotate(361.0749130674582)"><path class="b-outline" fill="#A5ABB6" stroke="none" d="M 25 0.5 L 49.8290310574082 0.5 L 49.8290310574082 -0.5 L 25 -0.5 Z M 84.2743435574082 0.5 L 109.1033746148164 0.5 L 109.1033746148164 3.5 L 116.1033746148164 0 L 109.1033746148164 -3.5 L 109.1033746148164 -0.5 L 84.2743435574082 -0.5 Z"/><text text-anchor="middle" pointer-events="none" font-size="8px" fill="#000000" x="67.0516873074082" y="3" font-family="Helvetica Neue, Helvetica, Arial, sans-serif">ORIGIN</text></g><g class="relationship" transform="translate(69.43518073530677 -18.304238493357282) rotate(539.5367706107281)"><path class="b-outline" fill="#A5ABB6" stroke="none" d="M 25 0.5 L 38.21403435393567 0.5 L 38.21403435393567 -0.5 L 25 -0.5 Z M 97.40153435393567 0.5 L 110.61556870787135 0.5 L 110.61556870787135 3.5 L 117.61556870787135 0 L 110.61556870787135 -3.5 L 110.61556870787135 -0.5 L 97.40153435393567 -0.5 Z"/><text text-anchor="middle" pointer-events="none" font-size="8px" fill="#000000" x="67.80778435393567" y="3" transform="rotate(180 67.80778435393567 0)" font-family="Helvetica Neue, Helvetica, Arial, sans-serif">DESTINATION</text></g><g class="relationship" transform="translate(-223.72015460141816 -17.870084956148833) rotate(360.27359049643115)"><path class="b-outline" fill="#A5ABB6" stroke="none" d="M 25 0.5 L 54.55041573207794 0.5 L 54.55041573207794 -0.5 L 25 -0.5 Z M 88.99572823207794 0.5 L 118.54614396415587 0.5 L 118.54614396415587 3.5 L 125.54614396415587 0 L 118.54614396415587 -3.5 L 118.54614396415587 -0.5 L 88.99572823207794 -0.5 Z"/><text text-anchor="middle" pointer-events="none" font-size="8px" fill="#000000" x="71.77307198207794" y="3" font-family="Helvetica Neue, Helvetica, Arial, sans-serif">ORIGIN</text></g><g class="relationship" transform="translate(-223.72015460141816 -17.870084956148833) rotate(180.1215387440518)"><path class="b-outline" fill="#A5ABB6" stroke="none" d="M 25 0.5 L 49.011788932945706 0.5 L 49.011788932945706 -0.5 L 25 -0.5 Z M 108.1992889329457 0.5 L 132.2110778658914 0.5 L 132.2110778658914 3.5 L 139.2110778658914 0 L 132.2110778658914 -3.5 L 132.2110778658914 -0.5 L 108.1992889329457 -0.5 Z"/><text text-anchor="middle" pointer-events="none" font-size="8px" fill="#000000" x="78.6055389329457" y="3" transform="rotate(180 78.6055389329457 0)" font-family="Helvetica Neue, Helvetica, Arial, sans-serif">DESTINATION</text></g></g><g class="layer nodes"><g class="node" aria-label="graph-node218" transform="translate(210.51372424280729,-15.657185510981947)"><circle class="b-outline" cx="0" cy="0" r="25" fill="#8DCC93" stroke="#5db665" stroke-width="2px"/><text class="caption" text-anchor="middle" pointer-events="none" x="0" y="5" font-size="10px" fill="#2A2C34" font-family="Helvetica Neue, Helvetica, Arial, sans-serif"> MSN</text></g><g class="node" aria-label="graph-node265" transform="translate(-387.93086301659,-18.218417649504204)"><circle class="b-outline" cx="0" cy="0" r="25" fill="#8DCC93" stroke="#5db665" stroke-width="2px"/><text class="caption" text-anchor="middle" pointer-events="none" x="0" y="5" font-size="10px" fill="#2A2C34" font-family="Helvetica Neue, Helvetica, Arial, sans-serif"> GRR</text></g><g class="node" aria-label="graph-node468" transform="translate(69.43518073530677,-18.304238493357282)"><circle class="b-outline" cx="0" cy="0" r="25" fill="#ECB5C9" stroke="#da7298" stroke-width="2px"/><text class="caption" text-anchor="middle" pointer-events="none" x="0" y="5" font-size="10px" fill="#2A2C34" font-family="Helvetica Neue, Helvetica, Arial, sans-serif"> 11/30/20…</text></g><g class="node" aria-label="graph-node204" transform="translate(-73.1757269466002,-17.151221575793702)"><circle class="b-outline" cx="0" cy="0" r="25" fill="#8DCC93" stroke="#5db665" stroke-width="2px"/><text class="caption" text-anchor="middle" pointer-events="none" x="0" y="5" font-size="10px" fill="#2A2C34" font-family="Helvetica Neue, Helvetica, Arial, sans-serif"> ORD</text></g><g class="node" aria-label="graph-node1048" transform="translate(-223.72015460141816,-17.870084956148833)"><circle class="b-outline" cx="0" cy="0" r="25" fill="#ECB5C9" stroke="#da7298" stroke-width="2px"/><text class="caption" text-anchor="middle" pointer-events="none" x="0" y="5" font-size="10px" fill="#2A2C34" font-family="Helvetica Neue, Helvetica, Arial, sans-serif"> 11/17/20…</text></g></g></svg>