<svg xmlns="http://www.w3.org/2000/svg" width="508.2759094238281" height="102.1077880859375" viewBox="-372.0693054199219 -55.07585906982422 508.2759094238281 102.1077880859375"><title>Neo4j Graph Visualization</title><desc>Created using Neo4j (http://www.neo4j.com/)</desc><g class="layer relationships"><g class="relationship" transform="translate(107.20660837904637 18.031932992802) rotate(194.1678443323725)"><path class="b-outline" fill="#A5ABB6" stroke="none" d="M 21.40063509461097,12.933012701892217 L 21.90063509461097,12.06698729810778 A 95.92094628409521 95.92094628409521 0 0 0 56.69495030921753,24.010063961500606 L 56.55768980004317,25.000598944538154 A 96.92094628409521 96.92094628409521 0 0 1 21.40063509461097,12.933012701892217 Z M 78.62941541673148,25.520513990637994 L 78.53894676659706,24.524614686821153 A 95.92094628409521 95.92094628409521 0 0 0 113.85701380760845,14.233084580578227 L 112.48100865100864,11.567262041658823 L 120.30660059118703,11.466709638331874 L 115.69168734974156,17.787514632470767 L 114.31568219314174,15.121692093551362 A 96.92094628409521 96.92094628409521 0 0 1 78.62941541673148,25.520513990637994"/><text text-anchor="middle" pointer-events="none" font-size="8px" fill="#000000" x="67.59047478703762" y="28.391217868594552" transform="rotate(180 67.59047478703762 25.391217868594552)" font-family="Helvetica Neue, Helvetica, Arial, sans-serif">road</text></g><g class="relationship" transform="translate(-30.98007615401226 -16.85216640675078) rotate(539.4554593735221)"><path class="b-outline" fill="#A5ABB6" stroke="none" d="M 25 0.5 L 62.72277966881684 0.5 L 62.72277966881684 -0.5 L 25 -0.5 Z M 82.05871716881684 0.5 L 119.78149683763368 0.5 L 119.78149683763368 3.5 L 126.78149683763368 0 L 119.78149683763368 -3.5 L 119.78149683763368 -0.5 L 82.05871716881684 -0.5 Z"/><text text-anchor="middle" pointer-events="none" font-size="8px" fill="#000000" x="72.39074841881684" y="3" transform="rotate(180 72.39074841881684 0)" font-family="Helvetica Neue, Helvetica, Arial, sans-serif">trek</text></g><g class="relationship" transform="translate(-182.75471809556672 -15.409652702986046) rotate(183.80644980578774)"><path class="b-outline" fill="#A5ABB6" stroke="none" d="M 25 0.5 L 67.16653991760623 0.5 L 67.16653991760623 -0.5 L 25 -0.5 Z M 86.50247741760623 0.5 L 128.66901733521246 0.5 L 128.66901733521246 3.5 L 135.66901733521246 0 L 128.66901733521246 -3.5 L 128.66901733521246 -0.5 L 86.50247741760623 -0.5 Z"/><text text-anchor="middle" pointer-events="none" font-size="8px" fill="#000000" x="76.83450866760623" y="3" transform="rotate(180 76.83450866760623 0)" font-family="Helvetica Neue, Helvetica, Arial, sans-serif">trek</text></g><g class="relationship" transform="translate(107.20660837904637 18.031932992802) rotate(194.1678443323725)"><path class="b-outline" fill="#A5ABB6" stroke="none" d="M 25 0.5 L 58.092925457757715 0.5 L 58.092925457757715 -0.5 L 25 -0.5 Z M 77.42886295775772 0.5 L 110.52178841551543 0.5 L 110.52178841551543 3.5 L 117.52178841551543 0 L 110.52178841551543 -3.5 L 110.52178841551543 -0.5 L 77.42886295775772 -0.5 Z"/><text text-anchor="middle" pointer-events="none" font-size="8px" fill="#000000" x="67.76089420775772" y="3" transform="rotate(180 67.76089420775772 0)" font-family="Helvetica Neue, Helvetica, Arial, sans-serif">trek</text></g><g class="relationship" transform="translate(107.20660837904637 18.031932992802) rotate(194.1678443323725)"><path class="b-outline" fill="#A5ABB6" stroke="none" d="M 21.40063509461097,-12.933012701892217 L 21.90063509461097,-12.06698729810778 A 95.92094628409521 95.92094628409521 0 0 1 37.54372982249583,-19.309883833817324 L 37.20681302104512,-20.251418256395823 A 96.92094628409521 96.92094628409521 0 0 0 21.40063509461097,-12.933012701892217 Z M 98.18244613102897,-21.68774225071796 L 97.89023542756189,-20.731388286550256 A 95.92094628409521 95.92094628409521 0 0 1 113.85701380760845,-14.233084580578227 L 112.48100865100864,-11.567262041658823 L 120.30660059118703,-11.466709638331874 L 115.69168734974156,-17.787514632470767 L 114.31568219314174,-15.121692093551362 A 96.92094628409521 96.92094628409521 0 0 0 98.18244613102897,-21.68774225071796"/><text text-anchor="middle" pointer-events="none" font-size="8px" fill="#000000" x="67.59047478703764" y="-22.391217868594552" transform="rotate(180 67.59047478703764 -25.391217868594552)" font-family="Helvetica Neue, Helvetica, Arial, sans-serif">PublicTransport</text></g></g><g class="layer nodes"><g class="node" aria-label="graph-node188" transform="translate(107.20660837904637,18.031932992802)"><circle class="b-outline" cx="0" cy="0" r="25" fill="#57C7E3" stroke="#23b3d7" stroke-width="2px"/><text class="caption" text-anchor="middle" pointer-events="none" x="0" y="5" font-size="10px" fill="#2A2C34" font-family="Helvetica Neue, Helvetica, Arial, sans-serif"> Darjeeling</text></g><g class="node" aria-label="graph-node190" transform="translate(-343.0692998185743,-26.07586189088064)"><circle class="b-outline" cx="0" cy="0" r="25" fill="#F16667" stroke="#eb2728" stroke-width="2px"/><text class="caption" text-anchor="middle" pointer-events="none" x="0" y="5" font-size="10px" fill="#FFFFFF" font-family="Helvetica Neue, Helvetica, Arial, sans-serif"> Sandakp…</text></g><g class="node" aria-label="graph-node187" transform="translate(-30.98007615401226,-16.85216640675078)"><circle class="b-outline" cx="0" cy="0" r="25" fill="#57C7E3" stroke="#23b3d7" stroke-width="2px"/><text class="caption" text-anchor="middle" pointer-events="none" x="0" y="5" font-size="10px" fill="#2A2C34" font-family="Helvetica Neue, Helvetica, Arial, sans-serif"> Rimbik</text></g><g class="node" aria-label="graph-node189" transform="translate(-182.75471809556672,-15.409652702986046)"><circle class="b-outline" cx="0" cy="0" r="25" fill="#D9C8AE" stroke="#c0a378" stroke-width="2px"/><text class="caption" text-anchor="middle" pointer-events="none" x="0" y="5" font-size="10px" fill="#2A2C34" font-family="Helvetica Neue, Helvetica, Arial, sans-serif"> BhikeBh…</text></g></g></svg>