<svg xmlns="http://www.w3.org/2000/svg" width="519.074462890625" height="120.98855590820312" viewBox="-404.0693054199219 -79.07586669921875 519.074462890625 120.98855590820312"><title>Neo4j Graph Visualization</title><desc>Created using Neo4j (http://www.neo4j.com/)</desc><g class="layer relationships"><g class="relationship" transform="translate(86.00519169112694 10.720104792440669) rotate(186.87016160076314)"><path class="b-outline" fill="#A5ABB6" stroke="none" d="M 21.40063509461097,12.933012701892217 L 21.90063509461097,12.06698729810778 A 96.86774224781568 96.86774224781568 0 0 0 57.15893044880145,24.144575433255696 L 57.02291431521582,25.135282055523064 A 97.86774224781568 97.86774224781568 0 0 1 21.40063509461097,12.933012701892217 Z M 79.09453685120133,25.6519653256467 L 79.005027985139,24.655979300194417 A 96.86774224781568 96.86774224781568 0 0 0 114.78984973307232,14.241467361835133 L 113.41306498049212,11.576047367713624 L 121.2386271781192,11.473206271501608 L 116.62556273651256,17.79536068733048 L 115.24877798393237,15.12994069320897 A 97.86774224781568 97.86774224781568 0 0 1 79.09453685120133,25.6519653256467"/><text text-anchor="middle" pointer-events="none" font-size="8px" fill="#000000" x="68.05581082178506" y="28.518136167845256" transform="rotate(180 68.05581082178506 25.518136167845256)" font-family="Helvetica Neue, Helvetica, Arial, sans-serif">road</text></g><g class="relationship" transform="translate(-56.41526175329962 -6.43941290407991) rotate(187.92457385699913)"><path class="b-outline" fill="#A5ABB6" stroke="none" d="M 25 0.5 L 64.59975900627155 0.5 L 64.59975900627155 -0.5 L 25 -0.5 Z M 83.93569650627155 0.5 L 123.53545551254311 0.5 L 123.53545551254311 3.5 L 130.5354555125431 0 L 123.53545551254311 -3.5 L 123.53545551254311 -0.5 L 83.93569650627155 -0.5 Z"/><text text-anchor="middle" pointer-events="none" font-size="8px" fill="#000000" x="74.26772775627155" y="3" transform="rotate(180 74.26772775627155 0)" font-family="Helvetica Neue, Helvetica, Arial, sans-serif">trek</text></g><g class="relationship" transform="translate(-210.46541944138326 -27.88298624834426) rotate(187.67865408128495)"><path class="b-outline" fill="#A5ABB6" stroke="none" d="M 25 0.5 L 69.87864641960473 0.5 L 69.87864641960473 -0.5 L 25 -0.5 Z M 89.21458391960473 0.5 L 134.09323033920947 0.5 L 134.09323033920947 3.5 L 141.09323033920947 0 L 134.09323033920947 -3.5 L 134.09323033920947 -0.5 L 89.21458391960473 -0.5 Z"/><text text-anchor="middle" pointer-events="none" font-size="8px" fill="#000000" x="79.54661516960473" y="3" transform="rotate(180 79.54661516960473 0)" font-family="Helvetica Neue, Helvetica, Arial, sans-serif">trek</text></g><g class="relationship" transform="translate(86.00519169112694 10.720104792440669) rotate(186.87016160076314)"><path class="b-outline" fill="#A5ABB6" stroke="none" d="M 25 0.5 L 58.55726148123257 0.5 L 58.55726148123257 -0.5 L 25 -0.5 Z M 77.89319898123257 0.5 L 111.45046046246514 0.5 L 111.45046046246514 3.5 L 118.45046046246514 0 L 111.45046046246514 -3.5 L 111.45046046246514 -0.5 L 77.89319898123257 -0.5 Z"/><text text-anchor="middle" pointer-events="none" font-size="8px" fill="#000000" x="68.22523023123257" y="3" transform="rotate(180 68.22523023123257 0)" font-family="Helvetica Neue, Helvetica, Arial, sans-serif">trek</text></g><g class="relationship" transform="translate(86.00519169112694 10.720104792440669) rotate(186.87016160076314)"><path class="b-outline" fill="#A5ABB6" stroke="none" d="M 21.40063509461097,-12.933012701892217 L 21.90063509461097,-12.06698729810778 A 96.86774224781568 96.86774224781568 0 0 1 37.99552120635219,-19.48724479777613 L 37.66167441420301,-20.429872146929384 A 97.86774224781568 97.86774224781568 0 0 0 21.40063509461097,-12.933012701892217 Z M 98.65474938277377,-21.857682965018398 L 98.36537678140586,-20.900466428607984 A 96.86774224781568 96.86774224781568 0 0 1 114.78984973307232,-14.241467361835133 L 113.41306498049212,-11.576047367713624 L 121.2386271781192,-11.473206271501608 L 116.62556273651256,-17.79536068733048 L 115.24877798393237,-15.12994069320897 A 97.86774224781568 97.86774224781568 0 0 0 98.65474938277377,-21.857682965018398"/><text text-anchor="middle" pointer-events="none" font-size="8px" fill="#000000" x="68.05581082178503" y="-22.518136167845256" transform="rotate(180 68.05581082178503 -25.518136167845256)" font-family="Helvetica Neue, Helvetica, Arial, sans-serif">PublicTransport</text></g></g><g class="layer nodes"><g class="node" aria-label="graph-node188" transform="translate(86.00519169112694,10.720104792440669)"><circle class="b-outline" cx="0" cy="0" r="25" fill="#57C7E3" stroke="#23b3d7" stroke-width="2px"/><text class="caption" text-anchor="middle" pointer-events="none" x="0" y="5" font-size="10px" fill="#2A2C34" font-family="Helvetica Neue, Helvetica, Arial, sans-serif"> Darjeeling</text></g><g class="node" aria-label="graph-node190" transform="translate(-375.0692998185743,-50.07586189088064)"><circle class="b-outline" cx="0" cy="0" r="25" fill="#F16667" stroke="#eb2728" stroke-width="2px"/><text class="caption" text-anchor="middle" pointer-events="none" x="0" y="5" font-size="10px" fill="#FFFFFF" font-family="Helvetica Neue, Helvetica, Arial, sans-serif"> Sandakp…</text></g><g class="node" aria-label="graph-node187" transform="translate(-56.41526175329962,-6.43941290407991)"><circle class="b-outline" cx="0" cy="0" r="25" fill="#57C7E3" stroke="#23b3d7" stroke-width="2px"/><text class="caption" text-anchor="middle" pointer-events="none" x="0" y="5" font-size="10px" fill="#2A2C34" font-family="Helvetica Neue, Helvetica, Arial, sans-serif"> Rimbik</text></g><g class="node" aria-label="graph-node189" transform="translate(-210.46541944138326,-27.88298624834426)"><circle class="b-outline" cx="0" cy="0" r="25" fill="#D9C8AE" stroke="#c0a378" stroke-width="2px"/><text class="caption" text-anchor="middle" pointer-events="none" x="0" y="5" font-size="10px" fill="#2A2C34" font-family="Helvetica Neue, Helvetica, Arial, sans-serif"> BhikeBh…</text></g></g></svg>