<svg xmlns="http://www.w3.org/2000/svg" width="836.67041015625" height="892.1338500976562" viewBox="-111.20784759521484 -603.873779296875 836.67041015625 892.1338500976562"><title>Neo4j Graph Visualization</title><desc>Created using Neo4j (http://www.neo4j.com/)</desc><g class="layer relationships"><g class="relationship" transform="translate(349.53094015612356 6.660674714595039) rotate(274.293382789118)"><path class="b-outline" fill="#A5ABB6" stroke="none" d="M 25 0.5 L 115.86806566549396 0.5 L 115.86806566549396 -0.5 L 25 -0.5 Z M 150.31337816549396 0.5 L 241.18144383098792 0.5 L 241.18144383098792 3.5 L 248.18144383098792 0 L 241.18144383098792 -3.5 L 241.18144383098792 -0.5 L 150.31337816549396 -0.5 Z"/><text text-anchor="middle" pointer-events="none" font-size="8px" fill="#000000" x="133.09072191549396" y="3" font-family="Helvetica Neue, Helvetica, Arial, sans-serif">ORIGIN</text></g><g class="relationship" transform="translate(349.53094015612356 6.660674714595039) rotate(463.95090280037743)"><path class="b-outline" fill="#A5ABB6" stroke="none" d="M 25 0.5 L 71.98834362407732 0.5 L 71.98834362407732 -0.5 L 25 -0.5 Z M 131.17584362407732 0.5 L 178.16418724815463 0.5 L 178.16418724815463 3.5 L 185.16418724815463 0 L 178.16418724815463 -3.5 L 178.16418724815463 -0.5 L 131.17584362407732 -0.5 Z"/><text text-anchor="middle" pointer-events="none" font-size="8px" fill="#000000" x="101.58209362407732" y="3" transform="rotate(180 101.58209362407732 0)" font-family="Helvetica Neue, Helvetica, Arial, sans-serif">DESTINATION</text></g><g class="relationship" transform="translate(531.7649810437767 -56.52937849210711) rotate(232.28707318011834)"><path class="b-outline" fill="#A5ABB6" stroke="none" d="M 25 0.5 L 111.51638352442612 0.5 L 111.51638352442612 -0.5 L 25 -0.5 Z M 145.96169602442612 0.5 L 232.47807954885224 0.5 L 232.47807954885224 3.5 L 239.47807954885224 0 L 232.47807954885224 -3.5 L 232.47807954885224 -0.5 L 145.96169602442612 -0.5 Z"/><text text-anchor="middle" pointer-events="none" font-size="8px" fill="#000000" x="128.73903977442612" y="3" transform="rotate(180 128.73903977442612 0)" font-family="Helvetica Neue, Helvetica, Arial, sans-serif">ORIGIN</text></g><g class="relationship" transform="translate(531.7649810437767 -56.52937849210711) rotate(411.550060047419)"><path class="b-outline" fill="#A5ABB6" stroke="none" d="M 25 0.5 L 99.33586761927063 0.5 L 99.33586761927063 -0.5 L 25 -0.5 Z M 158.52336761927063 0.5 L 232.85923523854126 0.5 L 232.85923523854126 3.5 L 239.85923523854126 0 L 232.85923523854126 -3.5 L 232.85923523854126 -0.5 L 158.52336761927063 -0.5 Z"/><text text-anchor="middle" pointer-events="none" font-size="8px" fill="#000000" x="128.92961761927063" y="3" font-family="Helvetica Neue, Helvetica, Arial, sans-serif">DESTINATION</text></g><g class="relationship" transform="translate(426.8272131935993 -78.80527197900935) rotate(253.0872284492732)"><path class="b-outline" fill="#A5ABB6" stroke="none" d="M 25 0.5 L 76.97743975644434 0.5 L 76.97743975644434 -0.5 L 25 -0.5 Z M 111.42275225644434 0.5 L 163.40019201288868 0.5 L 163.40019201288868 3.5 L 170.40019201288868 0 L 163.40019201288868 -3.5 L 163.40019201288868 -0.5 L 111.42275225644434 -0.5 Z"/><text text-anchor="middle" pointer-events="none" font-size="8px" fill="#000000" x="94.20009600644434" y="3" transform="rotate(180 94.20009600644434 0)" font-family="Helvetica Neue, Helvetica, Arial, sans-serif">ORIGIN</text></g><g class="relationship" transform="translate(426.8272131935993 -78.80527197900935) rotate(222.55492699073824)"><path class="b-outline" fill="#A5ABB6" stroke="none" d="M 25 0.5 L 50.34118149509521 0.5 L 50.34118149509521 -0.5 L 25 -0.5 Z M 109.52868149509521 0.5 L 134.86986299019043 0.5 L 134.86986299019043 3.5 L 141.86986299019043 0 L 134.86986299019043 -3.5 L 134.86986299019043 -0.5 L 109.52868149509521 -0.5 Z"/><text text-anchor="middle" pointer-events="none" font-size="8px" fill="#000000" x="79.93493149509521" y="3" transform="rotate(180 79.93493149509521 0)" font-family="Helvetica Neue, Helvetica, Arial, sans-serif">DESTINATION</text></g><g class="relationship" transform="translate(447.90998081308874 18.82575661195281) rotate(254.68586816343702)"><path class="b-outline" fill="#A5ABB6" stroke="none" d="M 25 0.5 L 126.8056954912542 0.5 L 126.8056954912542 -0.5 L 25 -0.5 Z M 161.2510079912542 0.5 L 263.0567034825084 0.5 L 263.0567034825084 3.5 L 270.0567034825084 0 L 263.0567034825084 -3.5 L 263.0567034825084 -0.5 L 161.2510079912542 -0.5 Z"/><text text-anchor="middle" pointer-events="none" font-size="8px" fill="#000000" x="144.0283517412542" y="3" transform="rotate(180 144.0283517412542 0)" font-family="Helvetica Neue, Helvetica, Arial, sans-serif">ORIGIN</text></g><g class="relationship" transform="translate(447.90998081308874 18.82575661195281) rotate(431.8193237096962)"><path class="b-outline" fill="#A5ABB6" stroke="none" d="M 25 0.5 L 93.440321142488 0.5 L 93.440321142488 -0.5 L 25 -0.5 Z M 152.62782114248802 0.5 L 221.068142284976 0.5 L 221.068142284976 3.5 L 228.068142284976 0 L 221.068142284976 -3.5 L 221.068142284976 -0.5 L 152.62782114248802 -0.5 Z"/><text text-anchor="middle" pointer-events="none" font-size="8px" fill="#000000" x="123.034071142488" y="3" font-family="Helvetica Neue, Helvetica, Arial, sans-serif">DESTINATION</text></g><g class="relationship" transform="translate(329.44323091651955 -89.94903787534356) rotate(282.9849099530443)"><path class="b-outline" fill="#A5ABB6" stroke="none" d="M 25 0.5 L 69.48662315288603 0.5 L 69.48662315288603 -0.5 L 25 -0.5 Z M 103.93193565288603 0.5 L 148.41855880577205 0.5 L 148.41855880577205 3.5 L 155.41855880577205 0 L 148.41855880577205 -3.5 L 148.41855880577205 -0.5 L 103.93193565288603 -0.5 Z"/><text text-anchor="middle" pointer-events="none" font-size="8px" fill="#000000" x="86.70927940288603" y="3" font-family="Helvetica Neue, Helvetica, Arial, sans-serif">ORIGIN</text></g><g class="relationship" transform="translate(329.44323091651955 -89.94903787534356) rotate(255.90555021726868)"><path class="b-outline" fill="#A5ABB6" stroke="none" d="M 25 0.5 L 27.26539088235731 0.5 L 27.26539088235731 -0.5 L 25 -0.5 Z M 70.60132838235731 0.5 L 72.86671926471462 0.5 L 72.86671926471462 3.5 L 79.86671926471462 0 L 72.86671926471462 -3.5 L 72.86671926471462 -0.5 L 70.60132838235731 -0.5 Z"/><text text-anchor="middle" pointer-events="none" font-size="8px" fill="#000000" x="48.93335963235731" y="3" transform="rotate(180 48.93335963235731 0)" font-family="Helvetica Neue, Helvetica, Arial, sans-serif">DESTIN…</text></g><g class="relationship" transform="translate(526.5160169247673 -189.10335418831437) rotate(206.0898804003284)"><path class="b-outline" fill="#A5ABB6" stroke="none" d="M 25 0.5 L 66.42400006624223 0.5 L 66.42400006624223 -0.5 L 25 -0.5 Z M 100.86931256624223 0.5 L 142.29331263248446 0.5 L 142.29331263248446 3.5 L 149.29331263248446 0 L 142.29331263248446 -3.5 L 142.29331263248446 -0.5 L 100.86931256624223 -0.5 Z"/><text text-anchor="middle" pointer-events="none" font-size="8px" fill="#000000" x="83.64665631624223" y="3" transform="rotate(180 83.64665631624223 0)" font-family="Helvetica Neue, Helvetica, Arial, sans-serif">ORIGIN</text></g><g class="relationship" transform="translate(526.5160169247673 -189.10335418831437) rotate(533.0025322858223)"><path class="b-outline" fill="#A5ABB6" stroke="none" d="M 25 0.5 L 31.567628462254078 0.5 L 31.567628462254078 -0.5 L 25 -0.5 Z M 90.75512846225408 0.5 L 97.32275692450816 0.5 L 97.32275692450816 3.5 L 104.32275692450816 0 L 97.32275692450816 -3.5 L 97.32275692450816 -0.5 L 90.75512846225408 -0.5 Z"/><text text-anchor="middle" pointer-events="none" font-size="8px" fill="#000000" x="61.16137846225408" y="3" transform="rotate(180 61.16137846225408 0)" font-family="Helvetica Neue, Helvetica, Arial, sans-serif">DESTINATION</text></g><g class="relationship" transform="translate(398.7122647080165 -509.1948894350333) rotate(456.73070667639496)"><path class="b-outline" fill="#A5ABB6" stroke="none" d="M 25 0.5 L 101.84242776204763 0.5 L 101.84242776204763 -0.5 L 25 -0.5 Z M 136.28774026204763 0.5 L 213.13016802409527 0.5 L 213.13016802409527 3.5 L 220.13016802409527 0 L 213.13016802409527 -3.5 L 213.13016802409527 -0.5 L 136.28774026204763 -0.5 Z"/><text text-anchor="middle" pointer-events="none" font-size="8px" fill="#000000" x="119.06508401204763" y="3" transform="rotate(180 119.06508401204763 0)" font-family="Helvetica Neue, Helvetica, Arial, sans-serif">ORIGIN</text></g><g class="relationship" transform="translate(398.7122647080165 -509.1948894350333) rotate(203.85232355931913)"><path class="b-outline" fill="#A5ABB6" stroke="none" d="M 25 0.5 L 48.11548496803914 0.5 L 48.11548496803914 -0.5 L 25 -0.5 Z M 107.30298496803914 0.5 L 130.41846993607828 0.5 L 130.41846993607828 3.5 L 137.41846993607828 0 L 130.41846993607828 -3.5 L 130.41846993607828 -0.5 L 107.30298496803914 -0.5 Z"/><text text-anchor="middle" pointer-events="none" font-size="8px" fill="#000000" x="77.70923496803914" y="3" transform="rotate(180 77.70923496803914 0)" font-family="Helvetica Neue, Helvetica, Arial, sans-serif">DESTINATION</text></g><g class="relationship" transform="translate(406.0856548501823 -412.6846795652874) rotate(463.8050688903831)"><path class="b-outline" fill="#A5ABB6" stroke="none" d="M 25 0.5 L 54.927906416883005 0.5 L 54.927906416883005 -0.5 L 25 -0.5 Z M 89.373218916883 0.5 L 119.30112533376601 0.5 L 119.30112533376601 3.5 L 126.30112533376601 0 L 119.30112533376601 -3.5 L 119.30112533376601 -0.5 L 89.373218916883 -0.5 Z"/><text text-anchor="middle" pointer-events="none" font-size="8px" fill="#000000" x="72.150562666883" y="3" transform="rotate(180 72.150562666883 0)" font-family="Helvetica Neue, Helvetica, Arial, sans-serif">ORIGIN</text></g><g class="relationship" transform="translate(406.0856548501823 -412.6846795652874) rotate(226.129037126939)"><path class="b-outline" fill="#A5ABB6" stroke="none" d="M 25 0.5 L 79.39657827362358 0.5 L 79.39657827362358 -0.5 L 25 -0.5 Z M 138.58407827362356 0.5 L 192.98065654724715 0.5 L 192.98065654724715 3.5 L 199.98065654724715 0 L 192.98065654724715 -3.5 L 192.98065654724715 -0.5 L 138.58407827362356 -0.5 Z"/><text text-anchor="middle" pointer-events="none" font-size="8px" fill="#000000" x="108.99032827362358" y="3" transform="rotate(180 108.99032827362358 0)" font-family="Helvetica Neue, Helvetica, Arial, sans-serif">DESTINATION</text></g><g class="relationship" transform="translate(186.0499793122014 -324.62068504728313) rotate(377.74698490575753)"><path class="b-outline" fill="#A5ABB6" stroke="none" d="M 25 0.5 L 75.83866737579615 0.5 L 75.83866737579615 -0.5 L 25 -0.5 Z M 110.28397987579615 0.5 L 161.1226472515923 0.5 L 161.1226472515923 3.5 L 168.1226472515923 0 L 161.1226472515923 -3.5 L 161.1226472515923 -0.5 L 110.28397987579615 -0.5 Z"/><text text-anchor="middle" pointer-events="none" font-size="8px" fill="#000000" x="93.06132362579615" y="3" font-family="Helvetica Neue, Helvetica, Arial, sans-serif">ORIGIN</text></g><g class="relationship" transform="translate(186.0499793122014 -324.62068504728313) rotate(408.44656042038076)"><path class="b-outline" fill="#A5ABB6" stroke="none" d="M 25 0.5 L 55.74444090299255 0.5 L 55.74444090299255 -0.5 L 25 -0.5 Z M 114.93194090299255 0.5 L 145.6763818059851 0.5 L 145.6763818059851 3.5 L 152.6763818059851 0 L 145.6763818059851 -3.5 L 145.6763818059851 -0.5 L 114.93194090299255 -0.5 Z"/><text text-anchor="middle" pointer-events="none" font-size="8px" fill="#000000" x="85.33819090299255" y="3" font-family="Helvetica Neue, Helvetica, Arial, sans-serif">DESTINATION</text></g><g class="relationship" transform="translate(308.6471110616833 -469.5061222092133) rotate(433.24670344379047)"><path class="b-outline" fill="#A5ABB6" stroke="none" d="M 25 0.5 L 85.66914678628362 0.5 L 85.66914678628362 -0.5 L 25 -0.5 Z M 120.11445928628362 0.5 L 180.78360607256724 0.5 L 180.78360607256724 3.5 L 187.78360607256724 0 L 180.78360607256724 -3.5 L 180.78360607256724 -0.5 L 120.11445928628362 -0.5 Z"/><text text-anchor="middle" pointer-events="none" font-size="8px" fill="#000000" x="102.89180303628362" y="3" font-family="Helvetica Neue, Helvetica, Arial, sans-serif">ORIGIN</text></g><g class="relationship" transform="translate(308.6471110616833 -469.5061222092133) rotate(240.96879935110297)"><path class="b-outline" fill="#A5ABB6" stroke="none" d="M 25 0.5 L 27.160717880653657 0.5 L 27.160717880653657 -0.5 L 25 -0.5 Z M 86.34821788065366 0.5 L 88.50893576130731 0.5 L 88.50893576130731 3.5 L 95.50893576130731 0 L 88.50893576130731 -3.5 L 88.50893576130731 -0.5 L 86.34821788065366 -0.5 Z"/><text text-anchor="middle" pointer-events="none" font-size="8px" fill="#000000" x="56.75446788065366" y="3" transform="rotate(180 56.75446788065366 0)" font-family="Helvetica Neue, Helvetica, Arial, sans-serif">DESTINATION</text></g><g class="relationship" transform="translate(511.5259774429477 -287.3071719397541) rotate(531.3420186375824)"><path class="b-outline" fill="#A5ABB6" stroke="none" d="M 25 0.5 L 50.86496796396436 0.5 L 50.86496796396436 -0.5 L 25 -0.5 Z M 85.31028046396436 0.5 L 111.17524842792872 0.5 L 111.17524842792872 3.5 L 118.17524842792872 0 L 111.17524842792872 -3.5 L 111.17524842792872 -0.5 L 85.31028046396436 -0.5 Z"/><text text-anchor="middle" pointer-events="none" font-size="8px" fill="#000000" x="68.08762421396436" y="3" transform="rotate(180 68.08762421396436 0)" font-family="Helvetica Neue, Helvetica, Arial, sans-serif">ORIGIN</text></g><g class="relationship" transform="translate(511.5259774429477 -287.3071719397541) rotate(494.85150779036195)"><path class="b-outline" fill="#A5ABB6" stroke="none" d="M 25 0.5 L 47.2791354463605 0.5 L 47.2791354463605 -0.5 L 25 -0.5 Z M 106.4666354463605 0.5 L 128.745770892721 0.5 L 128.745770892721 3.5 L 135.745770892721 0 L 128.745770892721 -3.5 L 128.745770892721 -0.5 L 106.4666354463605 -0.5 Z"/><text text-anchor="middle" pointer-events="none" font-size="8px" fill="#000000" x="76.8728854463605" y="3" transform="rotate(180 76.8728854463605 0)" font-family="Helvetica Neue, Helvetica, Arial, sans-serif">DESTINATION</text></g><g class="relationship" transform="translate(224.51558462425348 -416.176428977257) rotate(405.95950511577746)"><path class="b-outline" fill="#A5ABB6" stroke="none" d="M 25 0.5 L 83.9045582257366 0.5 L 83.9045582257366 -0.5 L 25 -0.5 Z M 118.3498707257366 0.5 L 177.2544289514732 0.5 L 177.2544289514732 3.5 L 184.2544289514732 0 L 177.2544289514732 -3.5 L 177.2544289514732 -0.5 L 118.3498707257366 -0.5 Z"/><text text-anchor="middle" pointer-events="none" font-size="8px" fill="#000000" x="101.1272144757366" y="3" font-family="Helvetica Neue, Helvetica, Arial, sans-serif">ORIGIN</text></g><g class="relationship" transform="translate(224.51558462425348 -416.176428977257) rotate(279.181312851656)"><path class="b-outline" fill="#A5ABB6" stroke="none" d="M 25 0.5 L 47.284706364176714 0.5 L 47.284706364176714 -0.5 L 25 -0.5 Z M 106.47220636417671 0.5 L 128.75691272835343 0.5 L 128.75691272835343 3.5 L 135.75691272835343 0 L 128.75691272835343 -3.5 L 128.75691272835343 -0.5 L 106.47220636417671 -0.5 Z"/><text text-anchor="middle" pointer-events="none" font-size="8px" fill="#000000" x="76.87845636417671" y="3" font-family="Helvetica Neue, Helvetica, Arial, sans-serif">DESTINATION</text></g><g class="relationship" transform="translate(89.38621505253874 -337.3476627444145) rotate(374.31350891697673)"><path class="b-outline" fill="#A5ABB6" stroke="none" d="M 25 0.5 L 124.07010788855686 0.5 L 124.07010788855686 -0.5 L 25 -0.5 Z M 158.51542038855686 0.5 L 257.5855282771137 0.5 L 257.5855282771137 3.5 L 264.5855282771137 0 L 257.5855282771137 -3.5 L 257.5855282771137 -0.5 L 158.51542038855686 -0.5 Z"/><text text-anchor="middle" pointer-events="none" font-size="8px" fill="#000000" x="141.29276413855686" y="3" font-family="Helvetica Neue, Helvetica, Arial, sans-serif">ORIGIN</text></g><g class="relationship" transform="translate(89.38621505253874 -337.3476627444145) rotate(531.0719178438417)"><path class="b-outline" fill="#A5ABB6" stroke="none" d="M 25 0.5 L 53.75555449804051 0.5 L 53.75555449804051 -0.5 L 25 -0.5 Z M 112.94305449804051 0.5 L 141.69860899608102 0.5 L 141.69860899608102 3.5 L 148.69860899608102 0 L 141.69860899608102 -3.5 L 141.69860899608102 -0.5 L 112.94305449804051 -0.5 Z"/><text text-anchor="middle" pointer-events="none" font-size="8px" fill="#000000" x="83.34930449804051" y="3" transform="rotate(180 83.34930449804051 0)" font-family="Helvetica Neue, Helvetica, Arial, sans-serif">DESTINATION</text></g><g class="relationship" transform="translate(316.69672699946955 -372.9887001985937) rotate(423.5769154646056)"><path class="b-outline" fill="#A5ABB6" stroke="none" d="M 25 0.5 L 39.149281046529026 0.5 L 39.149281046529026 -0.5 L 25 -0.5 Z M 73.59459354652903 0.5 L 87.74387459305805 0.5 L 87.74387459305805 3.5 L 94.74387459305805 0 L 87.74387459305805 -3.5 L 87.74387459305805 -0.5 L 73.59459354652903 -0.5 Z"/><text text-anchor="middle" pointer-events="none" font-size="8px" fill="#000000" x="56.371937296529026" y="3" font-family="Helvetica Neue, Helvetica, Arial, sans-serif">ORIGIN</text></g><g class="relationship" transform="translate(316.69672699946955 -372.9887001985937) rotate(427.8029150127572)"><path class="b-outline" fill="#A5ABB6" stroke="none" d="M 25 0.5 L 74.7161378245073 0.5 L 74.7161378245073 -0.5 L 25 -0.5 Z M 133.9036378245073 0.5 L 183.6197756490146 0.5 L 183.6197756490146 3.5 L 190.6197756490146 0 L 183.6197756490146 -3.5 L 183.6197756490146 -0.5 L 133.9036378245073 -0.5 Z"/><text text-anchor="middle" pointer-events="none" font-size="8px" fill="#000000" x="104.3098878245073" y="3" font-family="Helvetica Neue, Helvetica, Arial, sans-serif">DESTINATION</text></g><g class="relationship" transform="translate(276.0366091192839 -285.8965513437186) rotate(372.10127228062754)"><path class="b-outline" fill="#A5ABB6" stroke="none" d="M 25 0.5 L 27.317701763131232 0.5 L 27.317701763131232 -0.5 L 25 -0.5 Z M 61.76301426313123 0.5 L 64.08071602626246 0.5 L 64.08071602626246 3.5 L 71.08071602626246 0 L 64.08071602626246 -3.5 L 64.08071602626246 -0.5 L 61.76301426313123 -0.5 Z"/><text text-anchor="middle" pointer-events="none" font-size="8px" fill="#000000" x="44.54035801313123" y="3" font-family="Helvetica Neue, Helvetica, Arial, sans-serif">ORIGIN</text></g><g class="relationship" transform="translate(276.0366091192839 -285.8965513437186) rotate(402.6642490193618)"><path class="b-outline" fill="#A5ABB6" stroke="none" d="M 25 0.5 L 49.94287552207794 0.5 L 49.94287552207794 -0.5 L 25 -0.5 Z M 109.13037552207794 0.5 L 134.07325104415588 0.5 L 134.07325104415588 3.5 L 141.07325104415588 0 L 134.07325104415588 -3.5 L 134.07325104415588 -0.5 L 109.13037552207794 -0.5 Z"/><text text-anchor="middle" pointer-events="none" font-size="8px" fill="#000000" x="79.53662552207794" y="3" font-family="Helvetica Neue, Helvetica, Arial, sans-serif">DESTINATION</text></g><g class="relationship" transform="translate(212.1466102546479 -217.22522078953637) rotate(342.90916916659046)"><path class="b-outline" fill="#A5ABB6" stroke="none" d="M 25 0.5 L 61.84119097787678 0.5 L 61.84119097787678 -0.5 L 25 -0.5 Z M 96.28650347787678 0.5 L 133.12769445575356 0.5 L 133.12769445575356 3.5 L 140.12769445575356 0 L 133.12769445575356 -3.5 L 133.12769445575356 -0.5 L 96.28650347787678 -0.5 Z"/><text text-anchor="middle" pointer-events="none" font-size="8px" fill="#000000" x="79.06384722787678" y="3" font-family="Helvetica Neue, Helvetica, Arial, sans-serif">ORIGIN</text></g><g class="relationship" transform="translate(212.1466102546479 -217.22522078953637) rotate(373.27251493034595)"><path class="b-outline" fill="#A5ABB6" stroke="none" d="M 25 0.5 L 62.46362463719959 0.5 L 62.46362463719959 -0.5 L 25 -0.5 Z M 121.65112463719959 0.5 L 159.11474927439917 0.5 L 159.11474927439917 3.5 L 166.11474927439917 0 L 159.11474927439917 -3.5 L 159.11474927439917 -0.5 L 121.65112463719959 -0.5 Z"/><text text-anchor="middle" pointer-events="none" font-size="8px" fill="#000000" x="92.05737463719959" y="3" font-family="Helvetica Neue, Helvetica, Arial, sans-serif">DESTINATION</text></g><g class="relationship" transform="translate(115.98584415266795 -243.05461736330645) rotate(354.89306945440524)"><path class="b-outline" fill="#A5ABB6" stroke="none" d="M 25 0.5 L 106.78171276803424 0.5 L 106.78171276803424 -0.5 L 25 -0.5 Z M 141.22702526803425 0.5 L 223.00873803606848 0.5 L 223.00873803606848 3.5 L 230.00873803606848 0 L 223.00873803606848 -3.5 L 223.00873803606848 -0.5 L 141.22702526803425 -0.5 Z"/><text text-anchor="middle" pointer-events="none" font-size="8px" fill="#000000" x="124.00436901803424" y="3" font-family="Helvetica Neue, Helvetica, Arial, sans-serif">ORIGIN</text></g><g class="relationship" transform="translate(115.98584415266795 -243.05461736330645) rotate(375.296220989581)"><path class="b-outline" fill="#A5ABB6" stroke="none" d="M 25 0.5 L 64.31711341778228 0.5 L 64.31711341778228 -0.5 L 25 -0.5 Z M 123.50461341778228 0.5 L 162.82172683556456 0.5 L 162.82172683556456 3.5 L 169.82172683556456 0 L 162.82172683556456 -3.5 L 162.82172683556456 -0.5 L 123.50461341778228 -0.5 Z"/><text text-anchor="middle" pointer-events="none" font-size="8px" fill="#000000" x="93.91086341778228" y="3" font-family="Helvetica Neue, Helvetica, Arial, sans-serif">DESTINATION</text></g><g class="relationship" transform="translate(256.27176555005485 -23.859535583569855) rotate(295.1774112538347)"><path class="b-outline" fill="#A5ABB6" stroke="none" d="M 25 0.5 L 112.92154593889714 0.5 L 112.92154593889714 -0.5 L 25 -0.5 Z M 147.36685843889714 0.5 L 235.28840437779428 0.5 L 235.28840437779428 3.5 L 242.28840437779428 0 L 235.28840437779428 -3.5 L 235.28840437779428 -0.5 L 147.36685843889714 -0.5 Z"/><text text-anchor="middle" pointer-events="none" font-size="8px" fill="#000000" x="130.14420218889714" y="3" font-family="Helvetica Neue, Helvetica, Arial, sans-serif">ORIGIN</text></g><g class="relationship" transform="translate(256.27176555005485 -23.859535583569855) rotate(508.35541615812195)"><path class="b-outline" fill="#A5ABB6" stroke="none" d="M 25 0.5 L 75.22468337367143 0.5 L 75.22468337367143 -0.5 L 25 -0.5 Z M 134.41218337367144 0.5 L 184.63686674734285 0.5 L 184.63686674734285 3.5 L 191.63686674734285 0 L 184.63686674734285 -3.5 L 184.63686674734285 -0.5 L 134.41218337367144 -0.5 Z"/><text text-anchor="middle" pointer-events="none" font-size="8px" fill="#000000" x="104.81843337367143" y="3" transform="rotate(180 104.81843337367143 0)" font-family="Helvetica Neue, Helvetica, Arial, sans-serif">DESTINATION</text></g><g class="relationship" transform="translate(141.9734196663787 -149.56742626317376) rotate(332.997920767589)"><path class="b-outline" fill="#A5ABB6" stroke="none" d="M 25 0.5 L 107.22987031614119 0.5 L 107.22987031614119 -0.5 L 25 -0.5 Z M 141.6751828161412 0.5 L 223.90505313228238 0.5 L 223.90505313228238 3.5 L 230.90505313228238 0 L 223.90505313228238 -3.5 L 223.90505313228238 -0.5 L 141.6751828161412 -0.5 Z"/><text text-anchor="middle" pointer-events="none" font-size="8px" fill="#000000" x="124.45252656614119" y="3" font-family="Helvetica Neue, Helvetica, Arial, sans-serif">ORIGIN</text></g><g class="relationship" transform="translate(141.9734196663787 -149.56742626317376) rotate(354.69651106012043)"><path class="b-outline" fill="#A5ABB6" stroke="none" d="M 25 0.5 L 95.54850635090867 0.5 L 95.54850635090867 -0.5 L 25 -0.5 Z M 154.73600635090867 0.5 L 225.28451270181733 0.5 L 225.28451270181733 3.5 L 232.28451270181733 0 L 225.28451270181733 -3.5 L 225.28451270181733 -0.5 L 154.73600635090867 -0.5 Z"/><text text-anchor="middle" pointer-events="none" font-size="8px" fill="#000000" x="125.14225635090867" y="3" font-family="Helvetica Neue, Helvetica, Arial, sans-serif">DESTINATION</text></g><g class="relationship" transform="translate(163.06126059448184 -52.9970647050024) rotate(314.20329074448887)"><path class="b-outline" fill="#A5ABB6" stroke="none" d="M 25 0.5 L 127.67030980180871 0.5 L 127.67030980180871 -0.5 L 25 -0.5 Z M 162.1156223018087 0.5 L 264.7859321036174 0.5 L 264.7859321036174 3.5 L 271.7859321036174 0 L 264.7859321036174 -3.5 L 264.7859321036174 -0.5 L 162.1156223018087 -0.5 Z"/><text text-anchor="middle" pointer-events="none" font-size="8px" fill="#000000" x="144.8929660518087" y="3" font-family="Helvetica Neue, Helvetica, Arial, sans-serif">ORIGIN</text></g><g class="relationship" transform="translate(163.06126059448184 -52.9970647050024) rotate(482.5700546459842)"><path class="b-outline" fill="#A5ABB6" stroke="none" d="M 25 0.5 L 51.62797710029014 0.5 L 51.62797710029014 -0.5 L 25 -0.5 Z M 110.81547710029014 0.5 L 137.44345420058028 0.5 L 137.44345420058028 3.5 L 144.44345420058028 0 L 137.44345420058028 -3.5 L 137.44345420058028 -0.5 L 110.81547710029014 -0.5 Z"/><text text-anchor="middle" pointer-events="none" font-size="8px" fill="#000000" x="81.22172710029014" y="3" transform="rotate(180 81.22172710029014 0)" font-family="Helvetica Neue, Helvetica, Arial, sans-serif">DESTINATION</text></g><g class="relationship" transform="translate(235.55713918070285 -121.00535292550514) rotate(312.88220360985815)"><path class="b-outline" fill="#A5ABB6" stroke="none" d="M 25 0.5 L 78.0477029639327 0.5 L 78.0477029639327 -0.5 L 25 -0.5 Z M 112.4930154639327 0.5 L 165.5407184278654 0.5 L 165.5407184278654 3.5 L 172.5407184278654 0 L 165.5407184278654 -3.5 L 165.5407184278654 -0.5 L 112.4930154639327 -0.5 Z"/><text text-anchor="middle" pointer-events="none" font-size="8px" fill="#000000" x="95.2703592139327" y="3" font-family="Helvetica Neue, Helvetica, Arial, sans-serif">ORIGIN</text></g><g class="relationship" transform="translate(235.55713918070285 -121.00535292550514) rotate(342.15584890655373)"><path class="b-outline" fill="#A5ABB6" stroke="none" d="M 25 0.5 L 52.31463266530936 0.5 L 52.31463266530936 -0.5 L 25 -0.5 Z M 111.50213266530936 0.5 L 138.81676533061872 0.5 L 138.81676533061872 3.5 L 145.81676533061872 0 L 138.81676533061872 -3.5 L 138.81676533061872 -0.5 L 111.50213266530936 -0.5 Z"/><text text-anchor="middle" pointer-events="none" font-size="8px" fill="#000000" x="81.90838266530936" y="3" font-family="Helvetica Neue, Helvetica, Arial, sans-serif">DESTINATION</text></g></g><g class="layer nodes"><g class="node" aria-label="graph-node202" transform="translate(369.98227537718094,-265.7541636133844)"><circle class="b-outline" cx="0" cy="0" r="25" fill="#8DCC93" stroke="#5db665" stroke-width="2px"/><text class="caption" text-anchor="middle" pointer-events="none" x="0" y="5" font-size="10px" fill="#2A2C34" font-family="Helvetica Neue, Helvetica, Arial, sans-serif"> LAX</text></g><g class="node" aria-label="graph-node199" transform="translate(298.8623820818601,210.62558057918832)"><circle class="b-outline" cx="0" cy="0" r="25" fill="#8DCC93" stroke="#5db665" stroke-width="2px"/><text class="caption" text-anchor="middle" pointer-events="none" x="0" y="5" font-size="10px" fill="#2A2C34" font-family="Helvetica Neue, Helvetica, Arial, sans-serif"> IAH</text></g><g class="node" aria-label="graph-node222" transform="translate(696.4625646891768,150.89559693879752)"><circle class="b-outline" cx="0" cy="0" r="25" fill="#8DCC93" stroke="#5db665" stroke-width="2px"/><text class="caption" text-anchor="middle" pointer-events="none" x="0" y="5" font-size="10px" fill="#2A2C34" font-family="Helvetica Neue, Helvetica, Arial, sans-serif"> LAS</text></g><g class="node" aria-label="graph-node210" transform="translate(303.90597632834215,-191.6588084848729)"><circle class="b-outline" cx="0" cy="0" r="25" fill="#8DCC93" stroke="#5db665" stroke-width="2px"/><text class="caption" text-anchor="middle" pointer-events="none" x="0" y="5" font-size="10px" fill="#2A2C34" font-family="Helvetica Neue, Helvetica, Arial, sans-serif"> SMF</text></g><g class="node" aria-label="graph-node213" transform="translate(526.8709134628484,259.26006313797456)"><circle class="b-outline" cx="0" cy="0" r="25" fill="#8DCC93" stroke="#5db665" stroke-width="2px"/><text class="caption" text-anchor="middle" pointer-events="none" x="0" y="5" font-size="10px" fill="#2A2C34" font-family="Helvetica Neue, Helvetica, Arial, sans-serif"> BOS</text></g><g class="node" aria-label="graph-node237" transform="translate(398.15651578348536,-173.34854776879084)"><circle class="b-outline" cx="0" cy="0" r="25" fill="#8DCC93" stroke="#5db665" stroke-width="2px"/><text class="caption" text-anchor="middle" pointer-events="none" x="0" y="5" font-size="10px" fill="#2A2C34" font-family="Helvetica Neue, Helvetica, Arial, sans-serif"> ABQ</text></g><g class="node" aria-label="graph-node238" transform="translate(250.165832624859,-574.8737817196984)"><circle class="b-outline" cx="0" cy="0" r="25" fill="#8DCC93" stroke="#5db665" stroke-width="2px"/><text class="caption" text-anchor="middle" pointer-events="none" x="0" y="5" font-size="10px" fill="#2A2C34" font-family="Helvetica Neue, Helvetica, Arial, sans-serif"> FAT</text></g><g class="node" aria-label="graph-node198" transform="translate(-82.2078476160655,-310.39057788613354)"><circle class="b-outline" cx="0" cy="0" r="25" fill="#8DCC93" stroke="#5db665" stroke-width="2px"/><text class="caption" text-anchor="middle" pointer-events="none" x="0" y="5" font-size="10px" fill="#2A2C34" font-family="Helvetica Neue, Helvetica, Arial, sans-serif"> EWR</text></g><g class="node" aria-label="graph-node239" transform="translate(71.84469678046713,89.79867282727807)"><circle class="b-outline" cx="0" cy="0" r="25" fill="#8DCC93" stroke="#5db665" stroke-width="2px"/><text class="caption" text-anchor="middle" pointer-events="none" x="0" y="5" font-size="10px" fill="#2A2C34" font-family="Helvetica Neue, Helvetica, Arial, sans-serif"> TUS</text></g><g class="node" aria-label="graph-node300" transform="translate(349.53094015612356,6.660674714595039)"><circle class="b-outline" cx="0" cy="0" r="25" fill="#ECB5C9" stroke="#da7298" stroke-width="2px"/><text class="caption" text-anchor="middle" pointer-events="none" x="0" y="5" font-size="10px" fill="#2A2C34" font-family="Helvetica Neue, Helvetica, Arial, sans-serif"> 11/30/20…</text></g><g class="node" aria-label="graph-node856" transform="translate(531.7649810437767,-56.52937849210711)"><circle class="b-outline" cx="0" cy="0" r="25" fill="#ECB5C9" stroke="#da7298" stroke-width="2px"/><text class="caption" text-anchor="middle" pointer-events="none" x="0" y="5" font-size="10px" fill="#2A2C34" font-family="Helvetica Neue, Helvetica, Arial, sans-serif"> 11/29/20…</text></g><g class="node" aria-label="graph-node1192" transform="translate(426.8272131935993,-78.80527197900935)"><circle class="b-outline" cx="0" cy="0" r="25" fill="#ECB5C9" stroke="#da7298" stroke-width="2px"/><text class="caption" text-anchor="middle" pointer-events="none" x="0" y="0" font-size="10px" fill="#2A2C34" font-family="Helvetica Neue, Helvetica, Arial, sans-serif"> 11/2/2015</text><text class="caption" text-anchor="middle" pointer-events="none" x="0" y="10" font-size="10px" fill="#2A2C34" font-family="Helvetica Neue, Helvetica, Arial, sans-serif"> 11:49:…</text></g><g class="node" aria-label="graph-node844" transform="translate(447.90998081308874,18.82575661195281)"><circle class="b-outline" cx="0" cy="0" r="25" fill="#ECB5C9" stroke="#da7298" stroke-width="2px"/><text class="caption" text-anchor="middle" pointer-events="none" x="0" y="5" font-size="10px" fill="#2A2C34" font-family="Helvetica Neue, Helvetica, Arial, sans-serif"> 11/29/20…</text></g><g class="node" aria-label="graph-node1204" transform="translate(329.44323091651955,-89.94903787534356)"><circle class="b-outline" cx="0" cy="0" r="25" fill="#ECB5C9" stroke="#da7298" stroke-width="2px"/><text class="caption" text-anchor="middle" pointer-events="none" x="0" y="0" font-size="10px" fill="#2A2C34" font-family="Helvetica Neue, Helvetica, Arial, sans-serif"> 11/3/2015</text><text class="caption" text-anchor="middle" pointer-events="none" x="0" y="10" font-size="10px" fill="#2A2C34" font-family="Helvetica Neue, Helvetica, Arial, sans-serif"> 13:44:…</text></g><g class="node" aria-label="graph-node1164" transform="translate(526.5160169247673,-189.10335418831437)"><circle class="b-outline" cx="0" cy="0" r="25" fill="#ECB5C9" stroke="#da7298" stroke-width="2px"/><text class="caption" text-anchor="middle" pointer-events="none" x="0" y="0" font-size="10px" fill="#2A2C34" font-family="Helvetica Neue, Helvetica, Arial, sans-serif"> 11/3/2015</text><text class="caption" text-anchor="middle" pointer-events="none" x="0" y="10" font-size="10px" fill="#2A2C34" font-family="Helvetica Neue, Helvetica, Arial, sans-serif"> 23:26:…</text></g><g class="node" aria-label="graph-node1156" transform="translate(398.7122647080165,-509.1948894350333)"><circle class="b-outline" cx="0" cy="0" r="25" fill="#ECB5C9" stroke="#da7298" stroke-width="2px"/><text class="caption" text-anchor="middle" pointer-events="none" x="0" y="0" font-size="10px" fill="#2A2C34" font-family="Helvetica Neue, Helvetica, Arial, sans-serif"> 11/1/2015</text><text class="caption" text-anchor="middle" pointer-events="none" x="0" y="10" font-size="10px" fill="#2A2C34" font-family="Helvetica Neue, Helvetica, Arial, sans-serif"> 02:27:…</text></g><g class="node" aria-label="graph-node1148" transform="translate(406.0856548501823,-412.6846795652874)"><circle class="b-outline" cx="0" cy="0" r="25" fill="#ECB5C9" stroke="#da7298" stroke-width="2px"/><text class="caption" text-anchor="middle" pointer-events="none" x="0" y="0" font-size="10px" fill="#2A2C34" font-family="Helvetica Neue, Helvetica, Arial, sans-serif"> 11/3/2015</text><text class="caption" text-anchor="middle" pointer-events="none" x="0" y="10" font-size="10px" fill="#2A2C34" font-family="Helvetica Neue, Helvetica, Arial, sans-serif"> 11:45:…</text></g><g class="node" aria-label="graph-node1200" transform="translate(186.0499793122014,-324.62068504728313)"><circle class="b-outline" cx="0" cy="0" r="25" fill="#ECB5C9" stroke="#da7298" stroke-width="2px"/><text class="caption" text-anchor="middle" pointer-events="none" x="0" y="0" font-size="10px" fill="#2A2C34" font-family="Helvetica Neue, Helvetica, Arial, sans-serif"> 11/4/2015</text><text class="caption" text-anchor="middle" pointer-events="none" x="0" y="10" font-size="10px" fill="#2A2C34" font-family="Helvetica Neue, Helvetica, Arial, sans-serif"> 05:06:…</text></g><g class="node" aria-label="graph-node1160" transform="translate(308.6471110616833,-469.5061222092133)"><circle class="b-outline" cx="0" cy="0" r="25" fill="#ECB5C9" stroke="#da7298" stroke-width="2px"/><text class="caption" text-anchor="middle" pointer-events="none" x="0" y="0" font-size="10px" fill="#2A2C34" font-family="Helvetica Neue, Helvetica, Arial, sans-serif"> 11/4/2015</text><text class="caption" text-anchor="middle" pointer-events="none" x="0" y="10" font-size="10px" fill="#2A2C34" font-family="Helvetica Neue, Helvetica, Arial, sans-serif"> 15:13:…</text></g><g class="node" aria-label="graph-node1120" transform="translate(511.5259774429477,-287.3071719397541)"><circle class="b-outline" cx="0" cy="0" r="25" fill="#ECB5C9" stroke="#da7298" stroke-width="2px"/><text class="caption" text-anchor="middle" pointer-events="none" x="0" y="0" font-size="10px" fill="#2A2C34" font-family="Helvetica Neue, Helvetica, Arial, sans-serif"> 11/4/2015</text><text class="caption" text-anchor="middle" pointer-events="none" x="0" y="10" font-size="10px" fill="#2A2C34" font-family="Helvetica Neue, Helvetica, Arial, sans-serif"> 15:09:…</text></g><g class="node" aria-label="graph-node1152" transform="translate(224.51558462425348,-416.176428977257)"><circle class="b-outline" cx="0" cy="0" r="25" fill="#ECB5C9" stroke="#da7298" stroke-width="2px"/><text class="caption" text-anchor="middle" pointer-events="none" x="0" y="0" font-size="10px" fill="#2A2C34" font-family="Helvetica Neue, Helvetica, Arial, sans-serif"> 11/2/2015</text><text class="caption" text-anchor="middle" pointer-events="none" x="0" y="10" font-size="10px" fill="#2A2C34" font-family="Helvetica Neue, Helvetica, Arial, sans-serif"> 09:18:…</text></g><g class="node" aria-label="graph-node332" transform="translate(89.38621505253874,-337.3476627444145)"><circle class="b-outline" cx="0" cy="0" r="25" fill="#ECB5C9" stroke="#da7298" stroke-width="2px"/><text class="caption" text-anchor="middle" pointer-events="none" x="0" y="5" font-size="10px" fill="#2A2C34" font-family="Helvetica Neue, Helvetica, Arial, sans-serif"> 11/30/20…</text></g><g class="node" aria-label="graph-node1116" transform="translate(316.69672699946955,-372.9887001985937)"><circle class="b-outline" cx="0" cy="0" r="25" fill="#ECB5C9" stroke="#da7298" stroke-width="2px"/><text class="caption" text-anchor="middle" pointer-events="none" x="0" y="0" font-size="10px" fill="#2A2C34" font-family="Helvetica Neue, Helvetica, Arial, sans-serif"> 11/2/2015</text><text class="caption" text-anchor="middle" pointer-events="none" x="0" y="10" font-size="10px" fill="#2A2C34" font-family="Helvetica Neue, Helvetica, Arial, sans-serif"> 04:43:…</text></g><g class="node" aria-label="graph-node1128" transform="translate(276.0366091192839,-285.8965513437186)"><circle class="b-outline" cx="0" cy="0" r="25" fill="#ECB5C9" stroke="#da7298" stroke-width="2px"/><text class="caption" text-anchor="middle" pointer-events="none" x="0" y="0" font-size="10px" fill="#2A2C34" font-family="Helvetica Neue, Helvetica, Arial, sans-serif"> 11/3/2015</text><text class="caption" text-anchor="middle" pointer-events="none" x="0" y="10" font-size="10px" fill="#2A2C34" font-family="Helvetica Neue, Helvetica, Arial, sans-serif"> 21:46:…</text></g><g class="node" aria-label="graph-node1172" transform="translate(212.1466102546479,-217.22522078953637)"><circle class="b-outline" cx="0" cy="0" r="25" fill="#ECB5C9" stroke="#da7298" stroke-width="2px"/><text class="caption" text-anchor="middle" pointer-events="none" x="0" y="0" font-size="10px" fill="#2A2C34" font-family="Helvetica Neue, Helvetica, Arial, sans-serif"> 11/2/2015</text><text class="caption" text-anchor="middle" pointer-events="none" x="0" y="10" font-size="10px" fill="#2A2C34" font-family="Helvetica Neue, Helvetica, Arial, sans-serif"> 15:15:…</text></g><g class="node" aria-label="graph-node1196" transform="translate(115.98584415266795,-243.05461736330645)"><circle class="b-outline" cx="0" cy="0" r="25" fill="#ECB5C9" stroke="#da7298" stroke-width="2px"/><text class="caption" text-anchor="middle" pointer-events="none" x="0" y="0" font-size="10px" fill="#2A2C34" font-family="Helvetica Neue, Helvetica, Arial, sans-serif"> 11/1/2015</text><text class="caption" text-anchor="middle" pointer-events="none" x="0" y="10" font-size="10px" fill="#2A2C34" font-family="Helvetica Neue, Helvetica, Arial, sans-serif"> 12:26:…</text></g><g class="node" aria-label="graph-node1176" transform="translate(256.27176555005485,-23.859535583569855)"><circle class="b-outline" cx="0" cy="0" r="25" fill="#ECB5C9" stroke="#da7298" stroke-width="2px"/><text class="caption" text-anchor="middle" pointer-events="none" x="0" y="0" font-size="10px" fill="#2A2C34" font-family="Helvetica Neue, Helvetica, Arial, sans-serif"> 11/1/2015</text><text class="caption" text-anchor="middle" pointer-events="none" x="0" y="10" font-size="10px" fill="#2A2C34" font-family="Helvetica Neue, Helvetica, Arial, sans-serif"> 05:51:…</text></g><g class="node" aria-label="graph-node1124" transform="translate(141.9734196663787,-149.56742626317376)"><circle class="b-outline" cx="0" cy="0" r="25" fill="#ECB5C9" stroke="#da7298" stroke-width="2px"/><text class="caption" text-anchor="middle" pointer-events="none" x="0" y="0" font-size="10px" fill="#2A2C34" font-family="Helvetica Neue, Helvetica, Arial, sans-serif"> 11/1/2015</text><text class="caption" text-anchor="middle" pointer-events="none" x="0" y="10" font-size="10px" fill="#2A2C34" font-family="Helvetica Neue, Helvetica, Arial, sans-serif"> 05:43:…</text></g><g class="node" aria-label="graph-node1180" transform="translate(163.06126059448184,-52.9970647050024)"><circle class="b-outline" cx="0" cy="0" r="25" fill="#ECB5C9" stroke="#da7298" stroke-width="2px"/><text class="caption" text-anchor="middle" pointer-events="none" x="0" y="0" font-size="10px" fill="#2A2C34" font-family="Helvetica Neue, Helvetica, Arial, sans-serif"> 11/2/2015</text><text class="caption" text-anchor="middle" pointer-events="none" x="0" y="10" font-size="10px" fill="#2A2C34" font-family="Helvetica Neue, Helvetica, Arial, sans-serif"> 09:52:…</text></g><g class="node" aria-label="graph-node1168" transform="translate(235.55713918070285,-121.00535292550514)"><circle class="b-outline" cx="0" cy="0" r="25" fill="#ECB5C9" stroke="#da7298" stroke-width="2px"/><text class="caption" text-anchor="middle" pointer-events="none" x="0" y="0" font-size="10px" fill="#2A2C34" font-family="Helvetica Neue, Helvetica, Arial, sans-serif"> 11/1/2015</text><text class="caption" text-anchor="middle" pointer-events="none" x="0" y="10" font-size="10px" fill="#2A2C34" font-family="Helvetica Neue, Helvetica, Arial, sans-serif"> 17:17:…</text></g></g></svg>